# xmcd
#
# Track frame offsets:
#	150
#	17765
#	36490
#	57432
#	74324
#	89196
#	111214
#	124030
#	139068
#	154158
#	169446
#	187623
#	203724
#	223208
#	239186
#	256828
#
# Disc length: 3655 seconds
#
# Revision: 1
# Processed by: cddbd v1.5.2PL0 Copyright (c) Steve Scherf et al.
# Submitted via: audiograbber 1.83.01
#
DISCID=f60e4510
DTITLE=Various Artist - Die besten Country-Duette
DYEAR=2008
DGENRE=Country
TTITLE0=Jerry Lee Lewis Feat. Bruce Springsteen - Pink Cadillac
TTITLE1=Dolly Parton With Kenny Rogers - Islands In The Stream
TTITLE2=Alabama Feat. 'N SYNC - God Must Have Spent A Little More Time On You
TTITLE3=Mary Chapin Carpenter and Sheryl Crow and Emmylou Harris - Flesh And Blood
TTITLE4=Tracy Lawrence With Brad Arnold - For The Love
TTITLE5=Lee Ann Womack Feat. Sons Of The Desert - I Hope You Dance
TTITLE6=Roy Rivers and Dolly Parton - Thank God I'm A Country Boy
TTITLE7=Travis Tritt and John Mellencamp - What Say You
TTITLE8=Big and Rich - Save A Horse (Ride A Cowboy)
TTITLE9=Genevieve Spalding and Michael Peterson - If He Only Knew
TTITLE10=The Thompson Brothers Band - Back On The Farm
TTITLE11=Jenny Lewis With The Watson Twins - Rise Up With The Fists
TTITLE12=Reba McEntire and Linda Davis - Does He Love You
TTITLE13=Patty Loveless and Travis Tritt - Out Of Control Raging Fire
TTITLE14=Culture Club - Your Kisses Are Charity (Dolly Mix)
TTITLE15=Kenny Rogers and Sheena Easton - We've Got Tonight
EXTD=
EXTT0=
EXTT1=
EXTT2=
EXTT3=
EXTT4=
EXTT5=
EXTT6=
EXTT7=
EXTT8=
EXTT9=
EXTT10=
EXTT11=
EXTT12=
EXTT13=
EXTT14=
EXTT15=
PLAYORDER=
